<?xml version="1.0" encoding="utf-8"?>
<svg width="64" height="64" viewBox="0 0 64 64" fill="none" xmlns="http://www.w3.org/2000/svg">
  <g>
    <rect width="64" height="64" fill="#FFFFFF" fill-rule="evenodd" />
    <g>
      <path d="M21.3333 0C12.4698 0 5.33333 7.13651 5.33333 16C5.33333 16 5.33333 18.6667 5.33333 18.6667C2.4 18.6667 0 21.0667 0 24C0 24 0 50.6667 0 50.6667C0 53.6 2.4 56 5.33333 56C5.33333 56 37.3333 56 37.3333 56C40.2667 56 42.6667 53.6 42.6667 50.6667C42.6667 50.6667 42.6667 24 42.6667 24C42.6667 21.0667 40.2667 18.6667 37.3333 18.6667C37.3333 18.6667 37.3333 16 37.3333 16C37.3333 7.13651 30.1968 0 21.3333 0C21.3333 0 21.3333 0 21.3333 0ZM21.3333 5.33333C27.4032 5.33333 32 9.93016 32 16C32 16 32 18.6667 32 18.6667L10.6667 18.6667C10.6667 18.6667 10.6667 16 10.6667 16C10.6667 9.93016 15.2635 5.33333 21.3333 5.33333C21.3333 5.33333 21.3333 5.33333 21.3333 5.33333Z" fill="#000000" transform="translate(10.667 2.667)" />
      <path d="M2.21645 4.36375C1.87783 4.36375 1.57191 4.30584 1.2987 4.19003C1.02549 4.07422 0.792688 3.91672 0.600288 3.71752C0.407888 3.51833 0.259741 3.28671 0.155844 3.02266C0.0519485 2.75861 0 2.47835 0 2.18187C0 1.87613 0.0519485 1.59124 0.155844 1.32719C0.259741 1.06314 0.407888 0.833838 0.600288 0.639275C0.792688 0.444714 1.02549 0.289526 1.2987 0.173716C1.57191 0.0579071 1.87783 1.90735e-06 2.21645 0C2.56277 0 2.87254 0.0579052 3.14574 0.173716C3.41895 0.289526 3.65176 0.444714 3.84416 0.639275C4.03656 0.833838 4.1847 1.06314 4.2886 1.32719C4.3925 1.59124 4.44444 1.87613 4.44444 2.18187C4.44444 2.47835 4.3925 2.75861 4.2886 3.02266C4.1847 3.28671 4.03656 3.51833 3.84416 3.71752C3.65176 3.91672 3.41895 4.07422 3.14574 4.19003C2.87254 4.30584 2.56277 4.36375 2.21645 4.36375L2.21645 4.36375ZM0.507936 6.60121L3.92496 6.60121L3.92496 23L0.507936 23L0.507936 6.60121ZM8.30014 6.60121L11.7172 6.60121L11.7172 7.99094C12.6253 7.37019 13.493 6.93474 14.3203 6.68459C15.1477 6.43444 15.9577 6.30936 16.7504 6.30936C17.7893 6.30936 18.7513 6.49235 19.6364 6.85831C20.5214 7.22427 21.2872 7.76858 21.9336 8.49124C22.5801 9.2139 23.0861 10.1149 23.4517 11.1943C23.8172 12.2736 24 13.5221 24 14.9396L24 23L20.5945 23L20.5945 15.6066C20.5945 14.708 20.4887 13.9042 20.2771 13.1955C20.0654 12.4867 19.7614 11.8891 19.3651 11.4027C18.9687 10.9163 18.4877 10.5457 17.9221 10.2909C17.3564 10.0362 16.7234 9.90876 16.0231 9.90876C15.6537 9.90876 15.2747 9.95509 14.886 10.0477C14.4974 10.1404 14.1164 10.2724 13.7431 10.4438C13.3699 10.6152 13.0101 10.8283 12.6638 11.0831C12.3175 11.3379 12.0019 11.6274 11.7172 11.9517L11.7172 23L8.30014 23L8.30014 6.60121Z" fill="#FFFFFF" transform="translate(20 30)" />
    </g>
  </g>
</svg>