<?xml version="1.0" encoding="utf-8"?>
<svg width="128" height="64" viewBox="0 0 128 64" fill="none" xmlns="http://www.w3.org/2000/svg">
  <g>
    <g transform="translate(64 0)">
      <path d="M5.33333 16C5.33333 7.13651 12.4698 0 21.3333 0C30.1968 0 37.3333 7.13651 37.3333 16L37.3333 18.6667C40.2667 18.6667 42.6667 21.0667 42.6667 24L42.6667 50.6667C42.6667 53.6 40.2667 56 37.3333 56L5.33333 56C2.4 56 0 53.6 0 50.6667L0 24C0 21.0667 2.4 18.6667 5.33333 18.6667L5.33333 16ZM32 16C32 9.93016 27.4032 5.33333 21.3333 5.33333C15.2635 5.33333 10.6667 9.93016 10.6667 16L10.6667 18.6667L32 18.6667L32 16ZM10.632 31.5234C10.9052 31.6392 11.2112 31.6971 11.5498 31.6971C11.8961 31.6971 12.2059 31.6392 12.4791 31.5234C12.7523 31.4076 12.9851 31.2501 13.1775 31.0509C13.3699 30.8517 13.518 30.62 13.6219 30.356C13.7258 30.0919 13.7778 29.8117 13.7778 29.5152C13.7778 29.2095 13.7258 28.9246 13.6219 28.6605C13.518 28.3965 13.3699 28.1672 13.1775 27.9726C12.9851 27.778 12.7523 27.6229 12.4791 27.5071C12.2059 27.3912 11.8961 27.3333 11.5498 27.3333C11.2112 27.3333 10.9052 27.3912 10.632 27.5071C10.3588 27.6229 10.126 27.778 9.93362 27.9726C9.74122 28.1672 9.59307 28.3965 9.48918 28.6605C9.38528 28.9246 9.33334 29.2095 9.33334 29.5152Q9.33334 29.9599 9.48918 30.356C9.59307 30.62 9.74122 30.8517 9.93362 31.0509C10.126 31.2501 10.3588 31.4076 10.632 31.5234ZM21.0505 33.9345L17.6335 33.9345L17.6335 50.3333L21.0505 50.3333L21.0505 39.285C21.3353 38.9607 21.6508 38.6712 21.9971 38.4164C22.3434 38.1616 22.7032 37.9485 23.0765 37.7771C23.4497 37.6057 23.8307 37.4737 24.2193 37.3811C24.608 37.2884 24.987 37.2421 25.3564 37.2421C26.0568 37.2421 26.6898 37.3695 27.2554 37.6243C27.8211 37.8791 28.3021 38.2496 28.6984 38.7361C29.0948 39.2225 29.3988 39.82 29.6104 40.5288Q29.9279 41.5919 29.9279 42.94L29.9279 50.3333L33.3333 50.3333L33.3333 42.2729C33.3333 40.8554 33.1506 39.6069 32.785 38.5276C32.4194 37.4482 31.9134 36.5472 31.267 35.8246C30.6205 35.1019 29.8547 34.5576 28.9697 34.1916C28.0847 33.8257 27.1227 33.6427 26.0837 33.6427Q24.8947 33.6427 23.6537 34.0179Q22.4127 34.3932 21.0505 35.3243L21.0505 33.9345ZM13.2583 33.9345L9.84127 33.9345L9.84127 50.3333L13.2583 50.3333L13.2583 33.9345Z" fill="#000000" fill-rule="evenodd" transform="translate(10.667 2.667)" />
    </g>
    <path d="M0 0L3.46875 0L3.46875 30.6125L0 30.6125L0 0ZM7.07813 19.7256C7.07813 18.1633 7.2793 16.6994 7.68164 15.3339C8.08398 13.9684 8.6582 12.7752 9.4043 11.7542C10.1504 10.7331 11.0527 9.92738 12.1113 9.3369C13.1699 8.74642 14.3594 8.45119 15.6797 8.45119C17 8.45119 18.1895 8.74642 19.248 9.3369C20.3066 9.92738 21.209 10.7331 21.9551 11.7542C22.7012 12.7752 23.2754 13.9684 23.6777 15.3339C24.0801 16.6994 24.2813 18.1633 24.2813 19.7256C24.2813 21.2879 24.0801 22.7518 23.6777 24.1172C23.2754 25.4827 22.7012 26.676 21.9551 27.697C21.209 28.718 20.3066 29.5238 19.248 30.1143C18.1895 30.7047 17 31 15.6797 31C14.3594 31 13.1699 30.7047 12.1113 30.1143C11.0527 29.5238 10.1504 28.718 9.4043 27.697C8.6582 26.676 8.08398 25.4827 7.68164 24.1172C7.2793 22.7518 7.07813 21.2879 7.07813 19.7256L7.07813 19.7256ZM10.7227 19.7256C10.7227 20.599 10.834 21.4263 11.0566 22.2074C11.2793 22.9886 11.6035 23.6775 12.0293 24.2741C12.4551 24.8707 12.9746 25.3443 13.5879 25.6949C14.2012 26.0455 14.8984 26.2208 15.6797 26.2208C16.4609 26.2208 17.1582 26.0455 17.7715 25.6949C18.3848 25.3443 18.9043 24.8707 19.3301 24.2741C19.7559 23.6775 20.0801 22.9886 20.3027 22.2074C20.5254 21.4263 20.6367 20.599 20.6367 19.7256C20.6367 18.8522 20.5254 18.0218 20.3027 17.2345C20.0801 16.4472 19.7559 15.7553 19.3301 15.1586C18.9043 14.562 18.3848 14.0884 17.7715 13.7378C17.1582 13.3872 16.4609 13.2119 15.6797 13.2119C14.8984 13.2119 14.2012 13.3872 13.5879 13.7378C12.9746 14.0884 12.4551 14.562 12.0293 15.1586C11.6035 15.7553 11.2793 16.4472 11.0566 17.2345C10.834 18.0218 10.7227 18.8522 10.7227 19.7256L10.7227 19.7256ZM26.9531 19.7809C26.9531 18.1817 27.1387 16.6902 27.5098 15.3062C27.8809 13.9223 28.4238 12.7229 29.1387 11.708C29.8535 10.6931 30.7285 9.89662 31.7637 9.31845C32.7988 8.74027 33.9805 8.45119 35.3086 8.45119C35.8867 8.45119 36.4688 8.50654 37.0547 8.61726C37.6406 8.72797 38.2051 8.88482 38.748 9.08779C39.291 9.29077 39.8008 9.53065 40.2773 9.80743C40.7539 10.0842 41.168 10.3887 41.5195 10.7208L39.9141 14.8357C39.1563 14.2821 38.4395 13.8762 37.7637 13.6178C37.0879 13.3595 36.4023 13.2304 35.707 13.2303C34.9102 13.2304 34.1953 13.3933 33.5625 13.7193C32.9297 14.0453 32.3926 14.5005 31.9512 15.0848C31.5098 15.6691 31.1738 16.358 30.9434 17.1515C30.7129 17.9449 30.5977 18.8091 30.5977 19.744C30.5977 20.679 30.7207 21.5431 30.9668 22.3366C31.2129 23.13 31.5605 23.8128 32.0098 24.3848C32.459 24.9568 33.002 25.4058 33.6387 25.7318C34.2754 26.0578 34.9844 26.2208 35.7656 26.2208C36.625 26.2208 37.4355 26.0301 38.1973 25.6488C38.959 25.2674 39.668 24.7569 40.3242 24.1172L41.9297 28.2321C41.5156 28.6258 41.0664 28.9917 40.582 29.33C40.0977 29.6683 39.5801 29.9605 39.0293 30.2065C38.4785 30.4526 37.9004 30.6463 37.2949 30.7878C36.6895 30.9292 36.0625 31 35.4141 31C34.0938 31 32.9102 30.717 31.8633 30.1512C30.8164 29.5853 29.9297 28.8011 29.2031 27.7985C28.4766 26.7959 27.9199 25.6119 27.5332 24.2464C27.1465 22.8809 26.9531 21.3924 26.9531 19.7809L26.9531 19.7809ZM45.6797 0L49.1484 0L49.1484 18.0833L55.6172 8.83869L60.9258 8.83869L53.6953 19.0244L61.3828 30.6125L56.1797 30.6125L51.0352 22.7702L49.1484 25.4274L49.1484 30.6125L45.6797 30.6125L45.6797 0Z" fill="#000000" transform="translate(8.262 25.348)" />
  </g>
</svg>